{"title":"Devious Nanny 2018 Movies 720p HDRip x264 AAC ESubs +Sample ☻rDX","magnet":"magnet:?xt=urn:btih:77923042cfb102eff4f36087ced703a042a3c514&dn=Devious+Nanny+2018+Movies+720p+HDRip+x264+AAC+ESubs+%2BSample+%E2%98%BBrDX&tr=udp%3A%2F%2Ftracker.leechers-paradise.org%3A6969&tr=udp%3A%2F%2Fzer0day.ch%3A1337&tr=udp%3A%2F%2Fopen.demonii.com%3A1337&tr=udp%3A%2F%2Ftracker.coppersurfer.tk%3A6969&tr=udp%3A%2F%2Fexodus.desync.com%3A6969","uploader":"basicssom","categoryP":"video","categoryS":"hd___movies","size":"872799435","seeders":"1","leechers":"17","description":"Devious Nanny 2018 Movies 720p HDRip x264 AAC ESubs with Sample &#x263B;rDX&#x263B;\r\n\r\nSCREEN SHOTS &amp; POSTER:\r\n   <a href=\"\nhttp://iphonehosting.eu/2018/9/court/index.html\" rel=\"nofollow\" target=\"_NEW\">\nhttp://iphonehosting.eu/2018/9/court/index.html</a> <a href=\"\nhttp://iphonehosting.eu/2018/9/court/1.html\" rel=\"nofollow\" target=\"_NEW\">\nhttp://iphonehosting.eu/2018/9/court/1.html</a> <a href=\"\nhttp://iphonehosting.eu/2018/9/court/2.html\" rel=\"nofollow\" target=\"_NEW\">\nhttp://iphonehosting.eu/2018/9/court/2.html</a>   <a href=\"\nhttp://iphonehosting.eu/2018/9/court/3.html\" rel=\"nofollow\" target=\"_NEW\">\nhttp://iphonehosting.eu/2018/9/court/3.html</a>   <a href=\"\nhttp://iphonehosting.eu/2018/9/court/4.html\" rel=\"nofollow\" target=\"_NEW\">\nhttp://iphonehosting.eu/2018/9/court/4.html</a>   <a href=\"\nhttp://iphonehosting.eu/2018/9/court/5.html\" rel=\"nofollow\" target=\"_NEW\">\nhttp://iphonehosting.eu/2018/9/court/5.html</a>   <a href=\"\nhttp://iphonehosting.eu/2018/9/court/6.html\" rel=\"nofollow\" target=\"_NEW\">\nhttp://iphonehosting.eu/2018/9/court/6.html</a>   <a href=\"\nhttp://iphonehosting.eu/2018/9/court/7.html\" rel=\"nofollow\" target=\"_NEW\">\nhttp://iphonehosting.eu/2018/9/court/7.html</a>   <a href=\"\nhttp://iphonehosting.eu/2018/9/court/8.html\" rel=\"nofollow\" target=\"_NEW\">\nhttp://iphonehosting.eu/2018/9/court/8.html</a>   <a href=\"\nhttp://iphonehosting.eu/2018/9/court/9.html\" rel=\"nofollow\" target=\"_NEW\">\nhttp://iphonehosting.eu/2018/9/court/9.html</a>   <a href=\"\nhttp://iphonehosting.eu/2018/9/court/10.html\" rel=\"nofollow\" target=\"_NEW\">\nhttp://iphonehosting.eu/2018/9/court/10.html</a>\r\n\r\nFile size                                : 824 MiB\r\nDuration                                 : 1 h 26 min\r\nOverall bit rate                         : 1 327 kb/s\r\nMovie name                               : Devious Nanny 2018 Movies 720p HDRip x264 AAC ESubs &#x263B;rDX&#x263B;\r\n\r\nVideo\r\nID                                       : 3\r\nFormat                                   : AVC\r\nFormat/Info                              : Advanced Video Codec\r\nFormat profile                           : Main@L3.1\r\nFormat settings, CABAC                   : Yes\r\nFormat settings, ReFrames                : 2 frames\r\nFormat settings, GOP                     : M=1, N=25\r\nCodec ID                                 : V_MPEG4/ISO/AVC\r\nDuration                                 : 1 h 26 min\r\nBit rate mode                            : Constant\r\nBit rate                                 : 1 200 kb/s\r\nWidth                                    : 1 280 pixels\r\nHeight                                   : 720 pixels\r\nDisplay aspect ratio                     : 16:9\r\nFrame rate mode                          : Constant\r\nFrame rate                               : 29.970 (30000/1001) FPS\r\nColor space                              : YUV\r\nChroma subsampling                       : 4:2:0\r\nBit depth                                : 8 bits\r\nScan type                                : Progressive\r\nBits/(Pixel*Frame)                       : 0.043\r\nStream size                              : 728 MiB (88%)\r\nTitle                                    : &#x263B;rDX&#x263B;\r\nDefault                                  : Yes\r\nForced                                   : No\r\n\r\nAudio\r\nID                                       : 1\r\nFormat                                   : MPEG Audio\r\nFormat version                           : Version 1\r\nFormat profile                           : Layer 3\r\nMode                                     : Joint stereo\r\nCodec ID                                 : A_MPEG/L3\r\nCodec ID/Hint                            : MP3\r\nDuration                                 : 1 h 26 min\r\nBit rate mode                            : Constant\r\nBit rate                                 : 128 kb/s\r\nChannel(s)                               : 2 channels\r\nSampling rate                            : 44.1 kHz\r\nCompression mode                         : Lossy\r\nStream size                              : 79.5 MiB (10%)\r\nTitle                                    : &#x263B;rDX&#x263B;\r\nWriting library                          : LAME3.99.5\r\nDefault                                  : Yes\r\nForced                                   : No\r\n <a href=\"\nhttps://www.imdb.com/title/tt7133170/\" rel=\"nofollow\" target=\"_NEW\">\nhttps://www.imdb.com/title/tt7133170/</a>","last_updated":"2018-09-19T12:13:01.593Z","parsed":{"xt":"urn:btih:77923042cfb102eff4f36087ced703a042a3c514","dn":"Devious Nanny 2018 Movies 720p HDRip x264 AAC ESubs  Sample ☻rDX","tr":["udp://exodus.desync.com:6969","udp://open.demonii.com:1337","udp://tracker.coppersurfer.tk:6969","udp://tracker.leechers-paradise.org:6969","udp://zer0day.ch:1337"],"infoHash":"77923042cfb102eff4f36087ced703a042a3c514","infoHashBuffer":{"type":"Buffer","data":[119,146,48,66,207,177,2,239,244,243,96,135,206,215,3,160,66,163,197,20]},"name":"Devious Nanny 2018 Movies 720p HDRip x264 AAC ESubs  Sample ☻rDX","announce":["udp://exodus.desync.com:6969","udp://open.demonii.com:1337","udp://tracker.coppersurfer.tk:6969","udp://tracker.leechers-paradise.org:6969","udp://zer0day.ch:1337"],"urlList":[]}}